<svg width="66" height="80" viewBox="0 0 66 80" fill="none" xmlns="http://www.w3.org/2000/svg">
<path fill-rule="evenodd" clip-rule="evenodd" d="M50.5319 78.4526C50.2456 78.4526 49.9564 78.4229 49.6725 78.3648C49.6318 78.3578 49.5886 78.3485 49.5454 78.3369L3.91778 67.6013C2.88592 67.3595 1.97194 66.7595 1.33937 65.91L1.3107 65.8735C0.74256 65.0972 0.442383 64.1769 0.442383 63.2126V23.8516C0.442383 23.0445 0.678843 22.2636 1.12628 21.5935L1.28132 21.6778C0.972294 22.3981 0.963445 23.0838 1.25513 23.6601C1.60274 24.3468 2.35707 24.8565 3.37937 25.0944L51.4958 36.1369C53.4289 36.591 54.7787 38.2947 54.7787 40.2799V74.1949C54.7787 76.5425 52.8735 78.4526 50.5319 78.4526Z" fill="#E67E22"/>
<path fill-rule="evenodd" clip-rule="evenodd" d="M1.05276 21.5442C0.595774 22.2291 0.354004 23.0267 0.354004 23.8514V63.2125C0.354004 64.1955 0.660199 65.1339 1.23931 65.9258L1.29241 65.9983H1.29524C1.93949 66.8458 2.8602 67.444 3.89772 67.6876L49.5275 78.4238C49.5675 78.4341 49.6138 78.4444 49.6598 78.4525C49.9444 78.5109 50.2397 78.541 50.5321 78.541C52.9225 78.541 54.8673 76.5913 54.8673 74.1948V40.2798C54.8673 38.2532 53.4896 36.5145 51.5165 36.0507L3.42232 25.0132L3.41701 25.0114L3.40179 25.009L3.39967 25.0083C2.40321 24.776 1.66976 24.2833 1.33418 23.6199C1.05453 23.0677 1.06445 22.4079 1.3625 21.7123L1.05276 21.5442ZM1.20002 21.6426C0.444269 23.4054 1.49737 24.747 3.35931 25.1806C3.36462 25.1824 3.36993 25.1824 3.37524 25.1842L51.4761 36.2231C53.3593 36.6656 54.6903 38.3453 54.6903 40.2798V74.1948C54.6903 76.5477 52.7675 78.364 50.5321 78.364C50.2552 78.364 49.9735 78.336 49.6903 78.278C49.6496 78.2709 49.6089 78.2621 49.5682 78.2514L3.93807 67.5152C2.88144 67.2674 1.9894 66.6514 1.38409 65.8214H1.38232C0.842499 65.0833 0.530995 64.1789 0.530995 63.2125V23.8514C0.530995 23.0337 0.777013 22.2762 1.20002 21.6426Z" fill="#66142E"/>
<path fill-rule="evenodd" clip-rule="evenodd" d="M1.43033 27.7482C1.37051 27.7482 1.30998 27.7334 1.25476 27.7015C0.874936 27.4838 0.553166 27.2296 0.271042 26.9242C0.138298 26.7808 0.147148 26.5567 0.290865 26.424C0.434228 26.2916 0.658298 26.3001 0.791042 26.4438C1.02361 26.6955 1.29016 26.9061 1.60662 27.0873C1.77617 27.1843 1.83494 27.4006 1.73759 27.5702C1.67246 27.6845 1.55281 27.7482 1.43033 27.7482Z" fill="white"/>
<path fill-rule="evenodd" clip-rule="evenodd" d="M5.82198 29.0051C5.79543 29.0051 5.76888 29.0023 5.74234 28.9963L3.50977 28.4837C3.31897 28.4402 3.20004 28.2501 3.24393 28.0596C3.28747 27.8692 3.47827 27.7506 3.668 27.7938L5.90057 28.3064C6.09136 28.3499 6.2103 28.54 6.16641 28.7304C6.12889 28.8943 5.98304 29.0051 5.82198 29.0051ZM10.2875 30.0299C10.2609 30.0299 10.2344 30.0271 10.2078 30.021L7.97526 29.5085C7.78446 29.4646 7.66552 29.2748 7.70942 29.0844C7.75296 28.894 7.94375 28.7754 8.13349 28.8186L10.3661 29.3311C10.5568 29.3747 10.6758 29.5648 10.6319 29.7552C10.5944 29.9191 10.4485 30.0299 10.2875 30.0299ZM14.7526 31.0547C14.7264 31.0547 14.6999 31.0518 14.6733 31.0458L12.4404 30.5333C12.2499 30.4894 12.131 30.2996 12.1749 30.1092C12.2184 29.9187 12.4089 29.8005 12.599 29.8433L14.8315 30.3559C15.022 30.3994 15.1413 30.5895 15.0974 30.78C15.0599 30.9439 14.914 31.0547 14.7526 31.0547ZM19.2181 32.0794C19.1919 32.0794 19.1653 32.0766 19.1388 32.0706L16.9059 31.558C16.7154 31.5145 16.5965 31.3244 16.64 31.134C16.6839 30.9435 16.8747 30.8253 17.0645 30.8681L19.297 31.3807C19.4875 31.4242 19.6068 31.6143 19.5629 31.8048C19.5253 31.9687 19.3795 32.0794 19.2181 32.0794ZM23.6836 33.1042C23.6574 33.1042 23.6308 33.1014 23.6043 33.0954L21.3714 32.5832C21.1809 32.5393 21.062 32.3492 21.1055 32.1587C21.1494 31.9683 21.3395 31.8497 21.5296 31.8929L23.7625 32.4055C23.953 32.449 24.0722 32.6391 24.0284 32.8295C23.9908 32.9934 23.845 33.1042 23.6836 33.1042ZM28.1491 34.129C28.1229 34.129 28.0963 34.1262 28.0698 34.1202L25.8369 33.6079C25.6464 33.5641 25.5275 33.374 25.571 33.1835C25.6149 32.9931 25.8053 32.8752 25.9951 32.9177L28.228 33.4302C28.4184 33.4738 28.5374 33.6639 28.4938 33.8543C28.4563 34.0182 28.3105 34.129 28.1491 34.129ZM32.6145 35.1538C32.5884 35.1538 32.5618 35.151 32.5353 35.1449L30.3023 34.6327C30.1119 34.5888 29.9926 34.3987 30.0365 34.2083C30.0804 34.0179 30.2708 33.8996 30.4606 33.9425L32.6935 34.455C32.8839 34.4986 33.0029 34.6887 32.9593 34.8791C32.9218 35.043 32.776 35.1538 32.6145 35.1538ZM37.08 36.1789C37.0538 36.1789 37.0273 36.1757 37.0004 36.1697L34.7678 35.6575C34.5774 35.6136 34.4581 35.4235 34.502 35.2331C34.5455 35.0426 34.736 34.9244 34.9261 34.9672L37.159 35.4798C37.3494 35.5237 37.4684 35.7134 37.4248 35.9039C37.3869 36.0678 37.2411 36.1789 37.08 36.1789ZM41.5455 37.2037C41.5193 37.2037 41.4924 37.2009 41.4659 37.1945L39.2333 36.6823C39.0425 36.6384 38.9236 36.4487 38.9675 36.2579C39.011 36.0674 39.2018 35.9488 39.3915 35.992L41.6245 36.5046C41.8149 36.5485 41.9338 36.7382 41.8903 36.9287C41.8524 37.0925 41.7066 37.2037 41.5455 37.2037ZM46.011 38.2285C45.9845 38.2285 45.9579 38.2256 45.9314 38.2193L43.6988 37.7071C43.508 37.6632 43.3891 37.4734 43.433 37.2826C43.4765 37.0922 43.6673 36.9736 43.857 37.0168L46.0896 37.5294C46.2804 37.5733 46.3993 37.763 46.3554 37.9534C46.3179 38.1173 46.1721 38.2285 46.011 38.2285ZM50.4765 39.2533C50.4499 39.2533 50.4234 39.2504 50.3969 39.2441L48.1643 38.7318C47.9735 38.6883 47.8545 38.4982 47.8984 38.3078C47.942 38.117 48.1324 37.9987 48.3225 38.0419L50.5551 38.5541C50.7459 38.598 50.8648 38.7878 50.8209 38.9786C50.7834 39.1421 50.6376 39.2533 50.4765 39.2533ZM51.8584 43.0617C51.663 43.0617 51.5045 42.9032 51.5045 42.7078V40.4168C51.5045 40.2214 51.663 40.0628 51.8584 40.0628C52.0538 40.0628 52.2124 40.2214 52.2124 40.4168V42.7078C52.2124 42.9032 52.0538 43.0617 51.8584 43.0617ZM51.8584 47.6433C51.663 47.6433 51.5045 47.4848 51.5045 47.2894V44.9984C51.5045 44.803 51.663 44.6444 51.8584 44.6444C52.0538 44.6444 52.2124 44.803 52.2124 44.9984V47.2894C52.2124 47.4848 52.0538 47.6433 51.8584 47.6433ZM51.8584 52.2246C51.663 52.2246 51.5045 52.0664 51.5045 51.8706V49.58C51.5045 49.3846 51.663 49.226 51.8584 49.226C52.0538 49.226 52.2124 49.3846 52.2124 49.58V51.8706C52.2124 52.0664 52.0538 52.2246 51.8584 52.2246ZM51.8584 56.8062C51.663 56.8062 51.5045 56.6479 51.5045 56.4522V54.1616C51.5045 53.9662 51.663 53.8076 51.8584 53.8076C52.0538 53.8076 52.2124 53.9662 52.2124 54.1616V56.4522C52.2124 56.6479 52.0538 56.8062 51.8584 56.8062ZM51.8584 61.3878C51.663 61.3878 51.5045 61.2292 51.5045 61.0338V58.7432C51.5045 58.5478 51.663 58.3892 51.8584 58.3892C52.0538 58.3892 52.2124 58.5478 52.2124 58.7432V61.0338C52.2124 61.2292 52.0538 61.3878 51.8584 61.3878ZM5.16782 65.2494C5.14092 65.2494 5.11366 65.2465 5.08641 65.2398L4.50552 65.1032C3.87154 64.9849 3.31791 64.8402 2.82906 64.6642C2.64535 64.5977 2.54977 64.3952 2.61596 64.2111C2.68216 64.0271 2.88535 63.9322 3.06906 63.998C3.52181 64.1609 4.03968 64.2961 4.65207 64.4108L5.24853 64.551C5.43897 64.5959 5.55685 64.7864 5.51189 64.9764C5.47366 65.1396 5.32818 65.2494 5.16782 65.2494ZM51.8584 65.9694C51.663 65.9694 51.5045 65.8108 51.5045 65.6154V63.3248C51.5045 63.1294 51.663 62.9708 51.8584 62.9708C52.0538 62.9708 52.2124 63.1294 52.2124 63.3248V65.6154C52.2124 65.8108 52.0538 65.9694 51.8584 65.9694ZM9.62765 66.2989C9.60074 66.2989 9.57349 66.2957 9.54623 66.2894L7.31614 65.7648C7.12605 65.7198 7.00818 65.5294 7.05278 65.3389C7.09773 65.1488 7.28889 65.031 7.47827 65.0756L9.70835 65.6002C9.89844 65.6451 10.0167 65.8356 9.97172 66.026C9.93349 66.1888 9.788 66.2989 9.62765 66.2989ZM14.0875 67.3481C14.0606 67.3481 14.033 67.3453 14.0061 67.3389L11.776 66.814C11.5855 66.769 11.4676 66.5786 11.5126 66.3885C11.5572 66.198 11.748 66.0802 11.9381 66.1248L14.1682 66.6494C14.3583 66.6943 14.4761 66.8848 14.4315 67.0752C14.3933 67.238 14.2478 67.3481 14.0875 67.3481ZM18.5469 68.3973C18.52 68.3973 18.4928 68.3945 18.4655 68.3881L16.2358 67.8635C16.0453 67.8186 15.9275 67.6281 15.9721 67.4377C16.017 67.2472 16.2082 67.1297 16.3979 67.174L18.6276 67.6989C18.8181 67.7439 18.936 67.9343 18.8914 68.1244C18.8528 68.2876 18.7076 68.3973 18.5469 68.3973ZM23.0068 69.4469C22.9799 69.4469 22.9526 69.4437 22.9253 69.4373L20.6956 68.9127C20.5052 68.8678 20.3873 68.6773 20.4319 68.4869C20.4769 68.2968 20.6669 68.1786 20.8577 68.2235L23.0875 68.7481C23.2779 68.7931 23.3958 68.9835 23.3508 69.174C23.3126 69.3368 23.1671 69.4469 23.0068 69.4469ZM27.4666 70.4961C27.4397 70.4961 27.4124 70.4933 27.3852 70.4869L25.1551 69.9619C24.965 69.917 24.8471 69.7265 24.8917 69.5364C24.9367 69.3464 25.1268 69.2278 25.3172 69.2727L27.5473 69.7973C27.7374 69.8423 27.8556 70.0327 27.8107 70.2232C27.7724 70.3864 27.6269 70.4961 27.4666 70.4961ZM51.8584 70.5507C51.663 70.5507 51.5045 70.3921 51.5045 70.1967V67.9061C51.5045 67.7104 51.663 67.5521 51.8584 67.5521C52.0538 67.5521 52.2124 67.7104 52.2124 67.9061V70.1967C52.2124 70.3921 52.0538 70.5507 51.8584 70.5507ZM31.9261 71.5453C31.8995 71.5453 31.8719 71.5425 31.845 71.5361L29.6149 71.0115C29.4248 70.9665 29.3066 70.7761 29.3515 70.5856C29.3961 70.3956 29.5866 70.2777 29.777 70.3219L32.0071 70.8469C32.1972 70.8918 32.3154 71.0823 32.2705 71.2724C32.2322 71.4356 32.0868 71.5453 31.9261 71.5453ZM36.3859 72.5948C36.3593 72.5948 36.3317 72.5917 36.3045 72.5853L34.0747 72.0607C33.8843 72.0157 33.7664 71.8253 33.8114 71.6348C33.856 71.4448 34.0464 71.3269 34.2368 71.3715L36.4669 71.8961C36.657 71.941 36.7749 72.1315 36.7303 72.3219C36.6917 72.4848 36.5466 72.5948 36.3859 72.5948ZM40.8457 73.6441C40.8188 73.6441 40.7915 73.6412 40.7643 73.6348L38.5345 73.1099C38.3441 73.0649 38.2262 72.8745 38.2708 72.6844C38.3158 72.494 38.5069 72.3757 38.6967 72.4207L40.9264 72.9456C41.1168 72.9902 41.2347 73.181 41.1898 73.3711C41.1515 73.5343 41.0064 73.6441 40.8457 73.6441ZM45.3055 74.6933C45.2786 74.6933 45.2514 74.6904 45.2241 74.684L42.9944 74.1594C42.8039 74.1145 42.6861 73.924 42.7307 73.7336C42.7756 73.5432 42.9664 73.4253 43.1565 73.4699L45.3862 73.9948C45.5767 74.0398 45.6945 74.2302 45.6496 74.4207C45.6114 74.5835 45.4659 74.6933 45.3055 74.6933ZM51.737 75.1145C51.6871 75.1145 51.6369 75.1042 51.5887 75.0819C51.411 75.0002 51.3338 74.7895 51.416 74.6122C51.4747 74.4848 51.5045 74.3446 51.5045 74.1948V72.4876C51.5045 72.2922 51.663 72.134 51.8584 72.134C52.0538 72.134 52.2124 72.2922 52.2124 72.4876V74.1948C52.2124 74.4476 52.1607 74.6879 52.0584 74.9092C51.9986 75.0387 51.8708 75.1145 51.737 75.1145ZM49.7653 75.7428C49.7384 75.7428 49.7112 75.74 49.6839 75.7333L47.4538 75.2087C47.2638 75.1637 47.1455 74.9733 47.1905 74.7828C47.2354 74.5927 47.4262 74.4748 47.616 74.5194L49.8461 75.044C50.0361 75.089 50.1544 75.2794 50.1094 75.4699C50.0712 75.6327 49.9257 75.7428 49.7653 75.7428Z" fill="white"/>
<path fill-rule="evenodd" clip-rule="evenodd" d="M1.04012 63.4572C0.937467 63.4572 0.83552 63.4126 0.765785 63.327C0.485078 62.9825 0.290387 62.5917 0.187024 62.1655C0.141007 61.9758 0.257821 61.7843 0.447909 61.7383C0.637644 61.6916 0.829148 61.8091 0.875166 61.9988C0.953396 62.3213 1.10136 62.6179 1.31446 62.8795C1.438 63.031 1.41534 63.254 1.26384 63.3776C1.198 63.431 1.11906 63.4572 1.04012 63.4572Z" fill="white"/>
<path fill-rule="evenodd" clip-rule="evenodd" d="M54.0822 39.5275C53.5162 38.5993 52.5933 37.9013 51.4762 37.639L3.37529 26.6C3.36998 26.5983 3.36467 26.5983 3.35936 26.5965C2.19794 26.3264 1.35086 25.7027 1.06201 24.8436V24.4783C1.06307 24.4793 1.06378 24.48 1.06484 24.4811C1.0652 24.4818 1.06591 24.4825 1.06661 24.4832C1.06732 24.4843 1.06838 24.4854 1.06945 24.4864C1.07015 24.4875 1.07086 24.4885 1.07192 24.4896C1.07299 24.4907 1.07405 24.4921 1.07511 24.4931C1.07617 24.4946 1.07723 24.496 1.07829 24.497C1.079 24.4981 1.07971 24.4988 1.08042 24.4995C1.08183 24.5013 1.0836 24.5031 1.08502 24.5048C1.08537 24.5052 1.08573 24.5055 1.08608 24.5059C1.0875 24.5077 1.08891 24.5094 1.09068 24.5112C1.09104 24.5115 1.09139 24.5119 1.09175 24.5123C1.09352 24.5144 1.09529 24.5165 1.09706 24.5183C1.09706 24.5186 1.09706 24.5186 1.09741 24.5186C1.09918 24.5207 1.10095 24.5229 1.10307 24.525C1.10307 24.525 1.10307 24.525 1.10307 24.5254C1.30661 24.754 1.55157 24.9583 1.83334 25.1335C1.83369 25.1335 1.83369 25.1338 1.83369 25.1338C1.839 25.137 1.84431 25.1402 1.84962 25.1438C1.84998 25.1438 1.85033 25.1438 1.85033 25.1441C1.85281 25.1455 1.85564 25.1473 1.85812 25.1487C1.85847 25.1491 1.85847 25.1491 1.85847 25.1491C1.86095 25.1505 1.86378 25.1523 1.86626 25.1537C1.86626 25.1537 1.86661 25.154 1.86697 25.154C1.86945 25.1558 1.87192 25.1572 1.8744 25.1586C1.87476 25.159 1.87546 25.1593 1.87582 25.1593C1.87794 25.1607 1.88006 25.1622 1.88219 25.1636C1.8829 25.1636 1.88325 25.1639 1.8836 25.1643C1.88608 25.1657 1.88856 25.1671 1.89068 25.1685C1.89139 25.1689 1.8921 25.1692 1.89281 25.1696C1.89458 25.171 1.8967 25.1721 1.89883 25.1731C1.89918 25.1735 1.89989 25.1738 1.90024 25.1742C1.90272 25.1756 1.90484 25.177 1.90697 25.1781C1.90803 25.1788 1.90874 25.1792 1.9098 25.1799C1.91157 25.1809 1.91334 25.182 1.91511 25.1831C1.91617 25.1838 1.91759 25.1845 1.91865 25.1852C1.92042 25.1862 1.92183 25.1869 1.9236 25.188C1.92467 25.1884 1.92573 25.1891 1.92679 25.1898C1.92856 25.1908 1.93033 25.1919 1.93245 25.193C1.93352 25.1937 1.93493 25.1944 1.93599 25.1951C1.93741 25.1958 1.93847 25.1965 1.93989 25.1976C1.94095 25.1983 1.94237 25.199 1.94343 25.1997C1.9452 25.2004 1.94697 25.2015 1.94838 25.2025C1.95015 25.2032 1.95157 25.2043 1.95334 25.2054C1.9544 25.2057 1.95511 25.2064 1.95617 25.2068C1.959 25.2085 1.96183 25.21 1.96467 25.2117C1.96502 25.2117 1.96537 25.2121 1.96573 25.2124C1.9675 25.2131 1.96891 25.2142 1.97068 25.2149C1.97104 25.2153 1.97175 25.2156 1.97245 25.216C1.97564 25.2177 1.97883 25.2195 1.98201 25.2213C1.98201 25.2216 1.98237 25.2216 1.98237 25.2216C1.98414 25.2227 1.98591 25.2238 1.98768 25.2245C1.98803 25.2248 1.98803 25.2248 1.98838 25.2252C1.99192 25.2269 1.99511 25.2291 1.99865 25.2308H1.999C2.33776 25.4192 2.7229 25.5692 3.14768 25.6758H3.14803C3.1544 25.6772 3.16077 25.679 3.1675 25.6804C3.16821 25.6807 3.16891 25.6811 3.16998 25.6811C3.17175 25.6818 3.17387 25.6822 3.17564 25.6825C3.17812 25.6832 3.1806 25.6839 3.18272 25.6843C3.18449 25.6846 3.18591 25.685 3.18768 25.6854C3.18909 25.6857 3.19051 25.6861 3.19228 25.6864C3.19369 25.6871 3.19511 25.6875 3.19653 25.6878C3.19936 25.6882 3.20183 25.6889 3.20467 25.6896C3.20573 25.69 3.20714 25.6903 3.20856 25.6907C3.21068 25.691 3.21281 25.6917 3.21493 25.6921C3.21599 25.6924 3.2167 25.6924 3.21776 25.6928C3.2206 25.6935 3.22378 25.6942 3.22661 25.6949C3.22768 25.6949 3.22874 25.6953 3.22945 25.6956C3.23263 25.6963 3.23582 25.697 3.239 25.6977V25.6974C3.24502 25.6992 3.25104 25.7006 3.2567 25.7016L51.3548 36.7399C52.7558 37.0691 53.7983 38.1668 54.0822 39.5275Z" fill="#F4C59B"/>
<path fill-rule="evenodd" clip-rule="evenodd" d="M1.06195 24.4784V63.2126C1.06195 65.0271 2.29451 66.5835 4.05947 66.9981L49.6896 77.7347C49.7292 77.745 49.7554 77.7503 49.7816 77.7549C50.8687 77.9775 51.9713 77.706 52.8216 77.0122C53.6719 76.3188 54.1593 75.2919 54.1593 74.1949V40.2798C54.1593 38.5835 53.006 37.128 51.3547 36.74L3.25664 25.7018C3.25097 25.7007 3.24496 25.6993 3.23894 25.6975V25.6979C2.30513 25.4805 1.55363 25.0558 1.06195 24.4784ZM50.5306 78.8947C50.2156 78.8947 49.8988 78.8628 49.5837 78.7981C49.5437 78.7917 49.4885 78.7793 49.4329 78.7648L3.81664 68.032C1.56956 67.5043 0 65.5223 0 63.2126V23.8515C0 22.9566 0.262301 22.0908 0.75823 21.3478C0.910796 21.1195 1.21204 21.0451 1.4531 21.1758C1.69451 21.3067 1.79611 21.5995 1.68814 21.8519C1.42867 22.4568 1.41593 22.9977 1.64991 23.4604C1.93735 24.0278 2.58655 24.4551 3.47788 24.6632C3.48319 24.6643 3.4885 24.6653 3.49416 24.6667L51.595 35.7057C53.731 36.2076 55.2212 38.0883 55.2212 40.2798V74.1949C55.2212 75.6122 54.5915 76.9389 53.4931 77.8349C52.6442 78.5276 51.6004 78.8947 50.5306 78.8947Z" fill="#66142E"/>
<path fill-rule="evenodd" clip-rule="evenodd" d="M57.7875 37.5206C57.7875 36.4154 57.3521 35.3797 56.561 34.6048C56.0307 34.0852 55.3677 33.7206 54.6435 33.5499L4.26294 22.4268H57.8371C59.1366 22.4268 60.3482 23.0098 61.161 24.0264C61.7713 24.785 62.0937 25.7039 62.0937 26.6834V60.8268C62.0937 61.3004 62.0159 61.7659 61.8622 62.2094C61.4523 63.403 60.5419 64.3464 59.3645 64.7977C58.8895 64.9797 58.389 65.0745 57.8771 65.0799L57.7875 65.0806V37.5206Z" fill="#E67E22"/>
<path fill-rule="evenodd" clip-rule="evenodd" d="M57.8371 22.3381H3.45166L5.03608 22.6879L54.6255 33.6365C55.3317 33.8026 55.9802 34.1597 56.4991 34.668C57.2729 35.4263 57.6991 36.439 57.6991 37.5204V65.17L57.8779 65.1682C58.4007 65.1626 58.9115 65.0659 59.3961 64.8804C60.5982 64.4196 61.5278 63.4564 61.9462 62.238C62.1026 61.7852 62.1823 61.3102 62.1823 60.8266V26.6833C62.1823 25.6833 61.8531 24.7452 61.2301 23.9703C60.4007 22.9332 59.1639 22.3381 57.8371 22.3381ZM57.8371 22.5151C59.1557 22.5151 60.3292 23.1275 61.092 24.0815C61.6655 24.7948 62.0053 25.6992 62.0053 26.6833V60.8266C62.0053 61.301 61.9256 61.7558 61.7787 62.1806C61.3787 63.3452 60.4779 64.2762 59.3327 64.7151C58.8796 64.8886 58.3894 64.9859 57.8761 64.9912V37.5204C57.8761 36.3682 57.4035 35.3063 56.623 34.5417C56.0938 34.0231 55.423 33.6426 54.6637 33.4638L5.07432 22.5151H57.8371Z" fill="#66142E"/>
<path fill-rule="evenodd" clip-rule="evenodd" d="M58.4072 64.4159V37.5206C58.4072 36.0385 57.7261 34.6987 56.6231 33.8307V29.3819C57.604 28.7578 58.4553 27.9295 59.1073 26.9415C60.2118 26.7596 60.97 26.3865 61.3721 25.8247C61.439 26.1001 61.4744 26.3879 61.4744 26.6835V60.8268C61.4744 61.2314 61.4079 61.6286 61.2765 62.0084C61.2514 62.0821 61.2238 62.1546 61.1941 62.2258C60.9325 62.8548 60.5034 63.3911 59.9583 63.7812C59.9569 63.7819 59.9558 63.7829 59.9544 63.7836C59.9541 63.784 59.9537 63.7844 59.9533 63.7847C59.7056 63.9613 59.4337 64.1079 59.1431 64.2194C58.9045 64.3107 58.6585 64.3762 58.4072 64.4159ZM56.623 29.3818C57.6039 28.7574 58.4553 27.9294 59.1073 26.9414C58.4553 27.9294 57.6039 28.7577 56.623 29.3818Z" fill="#BF5E26"/>
<path fill-rule="evenodd" clip-rule="evenodd" d="M9.94202 23.0461L54.7781 32.9452C56.9179 33.4482 58.4072 35.3289 58.4072 37.5204V64.4156C58.6585 64.376 58.9045 64.3105 59.1431 64.2192C60.1487 63.8337 60.9264 63.0277 61.2765 62.0082C61.4079 61.6284 61.4744 61.2312 61.4744 60.8266V26.6832C61.4744 24.6776 59.8429 23.0461 57.8372 23.0461H9.94202ZM57.8762 65.5222C57.7364 65.5222 57.6022 65.467 57.5027 65.3686C57.4018 65.2687 57.3452 65.1328 57.3452 64.9912V37.5204C57.3452 35.8245 56.1926 34.3689 54.542 33.9806L4.96007 23.0337C4.69529 22.9749 4.51724 22.7268 4.54662 22.4574C4.576 22.188 4.80361 21.9841 5.07441 21.9841H57.8372C60.4284 21.9841 62.5364 24.0921 62.5364 26.6832V60.8266C62.5364 61.3494 62.4503 61.8634 62.2808 62.354C61.8284 63.6709 60.8231 64.7123 59.5229 65.2107C58.9987 65.4114 58.4464 65.5162 57.8818 65.5222H57.8762Z" fill="#66142E"/>
<path fill-rule="evenodd" clip-rule="evenodd" d="M16.3215 24.4546L9.94238 23.0461H16.0217L16.3215 24.4546Z" fill="#BF5E26"/>
<path fill-rule="evenodd" clip-rule="evenodd" d="M59.7915 25.678C59.9345 25.4026 60.0606 25.1187 60.1689 24.8263C60.0606 25.1187 59.9345 25.4026 59.7915 25.678ZM59.7915 25.678C59.9413 25.3895 60.0729 25.0915 60.1842 24.7842C60.1867 24.7782 60.1888 24.7718 60.1909 24.7658C60.1939 24.7577 60.1973 24.7488 60.2002 24.7407C60.2007 24.7385 60.2015 24.7364 60.2024 24.7343C60.2024 24.7346 60.2019 24.7354 60.2019 24.7354C60.2121 24.707 60.2218 24.6784 60.2316 24.6497C60.2883 24.4837 60.3394 24.3152 60.3843 24.1442C60.3851 24.141 60.386 24.1378 60.3868 24.1346C60.3881 24.1315 60.389 24.1279 60.3898 24.1247C60.3898 24.124 60.3898 24.1233 60.3902 24.1226C60.3902 24.1219 60.3906 24.1212 60.3906 24.1205C60.3906 24.1201 60.3906 24.1201 60.3911 24.1198C60.3915 24.118 60.3919 24.1166 60.3923 24.1148C60.3923 24.1138 60.3928 24.1123 60.3932 24.1113C60.3932 24.1109 60.3932 24.1102 60.3936 24.1099C60.3936 24.1092 60.3936 24.1085 60.394 24.1077C60.3945 24.1067 60.3945 24.1056 60.3949 24.1049C60.3953 24.1035 60.3953 24.1024 60.3957 24.1014C60.3961 24.0996 60.3966 24.0978 60.397 24.0961C60.397 24.0957 60.3974 24.0946 60.3974 24.0939C60.3978 24.0929 60.3978 24.0922 60.3983 24.0911C60.3987 24.089 60.3995 24.0865 60.4 24.0844C60.4004 24.0837 60.4004 24.083 60.4004 24.0823C60.4008 24.0819 60.4008 24.0816 60.4008 24.0812C60.4016 24.0787 60.4021 24.0762 60.4025 24.0738C60.4029 24.0727 60.4029 24.072 60.4033 24.0713C60.4033 24.0706 60.4038 24.0699 60.4038 24.0692C60.4042 24.0685 60.4042 24.0685 60.4042 24.0674C60.4046 24.0653 60.4055 24.0635 60.4059 24.0614C60.4059 24.061 60.4059 24.0607 60.4059 24.0603C60.4063 24.0593 60.4067 24.0582 60.4067 24.0571C60.4071 24.0561 60.4071 24.0554 60.4076 24.0546C60.4076 24.0536 60.408 24.0529 60.4084 24.0518C60.4084 24.0504 60.4088 24.049 60.4093 24.0476C60.4097 24.0458 60.4101 24.044 60.4105 24.0426C60.4105 24.0423 60.4105 24.0423 60.4105 24.0419C60.411 24.0401 60.4114 24.0387 60.4118 24.0373C60.4122 24.0355 60.4126 24.0338 60.4131 24.0323C60.4135 24.0306 60.4139 24.0288 60.4143 24.027C60.4148 24.0256 60.4152 24.0239 60.4156 24.0224C60.4156 24.0221 60.4156 24.0221 60.4156 24.0217C60.438 24.0391 60.46 24.0568 60.4825 24.0748C60.7118 24.3902 60.9174 24.8139 60.6978 25.1414C60.6081 25.2755 60.3775 25.4939 59.7915 25.678Z" fill="#BF5E26"/>
<path fill-rule="evenodd" clip-rule="evenodd" d="M51.7129 78.6034C51.0545 78.6034 50.3675 78.5231 49.6708 78.3645L49.708 78.1914C49.9802 78.2473 50.2574 78.2756 50.5321 78.2756C52.7763 78.2756 54.6018 76.4448 54.6018 74.1949V40.2799C54.6018 39.648 54.4528 39.0165 54.1706 38.454C53.6269 37.3687 52.6376 36.5871 51.456 36.3093L3.33171 25.2647C2.26516 25.0169 1.46905 24.4746 1.09737 23.7401C0.78091 23.1153 0.788698 22.3779 1.11861 21.6077C1.88357 20.4586 3.14976 19.7808 4.5133 19.7808H60.6106C62.9579 19.7808 64.8673 21.6905 64.8673 24.0374V58.1808C64.9271 62.6664 63.0574 63.9298 59.3533 64.8013L59.3013 64.6328C60.4298 64.1999 61.3023 63.2958 61.6952 62.1521C61.8422 61.7266 61.9168 61.2806 61.9168 60.8268V26.6834C61.9168 26.311 61.8673 25.9464 61.7696 25.5995L61.7664 25.5875V25.5839C61.2775 23.8285 59.6634 22.6038 57.8372 22.6038H5.88569L54.6829 33.3776C56.0312 33.6951 57.1437 34.6526 57.6591 35.939C57.862 36.4402 57.9646 36.9723 57.9646 37.5206V71.271C58.1115 73.55 57.5374 75.4533 56.3034 76.7694C55.1784 77.9691 53.5912 78.6034 51.7129 78.6034Z" fill="#D3623B"/>
<path fill-rule="evenodd" clip-rule="evenodd" d="M60.6107 19.6921H4.51332C3.1204 19.6921 1.8266 20.3845 1.05279 21.5445L1.04394 21.558L1.03757 21.5728C0.696686 22.3679 0.68996 23.1311 1.0181 23.7796C1.40111 24.5364 2.21527 25.0943 3.31155 25.3513L3.31722 25.353L3.33315 25.3562L3.33562 25.3566L51.4365 36.3955C52.5916 36.667 53.5597 37.4316 54.0914 38.4936C54.3675 39.044 54.5133 39.6617 54.5133 40.2797V74.1948C54.5133 76.3962 52.7275 78.187 50.5321 78.187C50.2634 78.187 49.9923 78.1594 49.7261 78.1045L49.651 78.4504C50.354 78.6107 51.0478 78.6918 51.713 78.6918C53.616 78.6918 55.2255 78.0482 56.3678 76.8298C57.6181 75.4967 58.2008 73.5725 58.0531 71.2652V37.5205C58.0531 36.9608 57.9484 36.4174 57.7413 35.9052C57.2149 34.5927 56.0797 33.6157 54.7045 33.2914L6.69704 22.6921H57.8372C59.6199 22.6921 61.1958 23.8847 61.6779 25.5959V25.5962L61.6847 25.6231C61.7799 25.9622 61.8284 26.319 61.8284 26.6833V60.8267C61.8284 61.2705 61.7554 61.7067 61.6114 62.1226C61.227 63.2419 60.3735 64.1265 59.2694 64.5498L59.3735 64.8875C60.9172 64.524 62.49 64.0376 63.5349 62.9477C64.5339 61.9056 64.9852 60.3898 64.9558 58.1782V24.0373C64.9558 21.6412 63.0068 19.6921 60.6107 19.6921ZM60.6107 19.8691C62.9133 19.8691 64.7788 21.7364 64.7788 24.0373V58.1806C64.839 62.6868 62.8762 63.8815 59.3328 64.7151C60.4779 64.2762 61.3788 63.3452 61.7788 62.1806C61.9257 61.7559 62.0054 61.301 62.0054 60.8267V26.6833C62.0054 26.2992 61.954 25.9275 61.8549 25.5753V25.5718C61.37 23.8107 59.754 22.5151 57.8372 22.5151H5.07439L54.6638 33.4638C56.016 33.7824 57.0832 34.7399 57.577 35.9718C57.7717 36.4532 57.8762 36.9771 57.8762 37.5205V71.2709C58.1749 75.9088 55.4531 78.5148 51.713 78.5148C51.0655 78.5148 50.3884 78.4369 49.6903 78.278C49.9735 78.336 50.2553 78.364 50.5321 78.364C52.7678 78.364 54.6903 76.5477 54.6903 74.1948V40.2797C54.6903 39.6143 54.5328 38.9789 54.2496 38.4143C53.7098 37.3364 52.7116 36.5134 51.4762 36.2231L3.37527 25.1842C3.36996 25.1824 3.36465 25.1824 3.35934 25.1806C1.49739 24.747 0.444297 23.4054 1.20005 21.6426C1.91332 20.5736 3.13102 19.8691 4.51332 19.8691H60.6107Z" fill="#66142E"/>
<path fill-rule="evenodd" clip-rule="evenodd" d="M63.9696 22.6423C63.9445 22.6182 63.9193 22.5959 63.8939 22.5757C63.131 21.6016 61.9441 20.9754 60.6107 20.9754H60.371C60.3608 20.9152 60.3501 20.8547 60.3385 20.7948C60.3254 20.7255 60.3116 20.6568 60.2967 20.5878C60.2896 20.5209 60.2829 20.4586 60.2754 20.4001H60.6107C62.1222 20.4001 63.4216 21.3269 63.9696 22.6423ZM1.53491 22.3148C1.56571 22.1793 1.61031 22.0398 1.66907 21.8968C2.31438 20.9587 3.37385 20.4001 4.51332 20.4001H15.4581L15.5806 20.9754H4.51332C3.32819 20.9754 2.26376 21.4932 1.53491 22.3148Z" fill="#EBB8A7"/>
<path fill-rule="evenodd" clip-rule="evenodd" d="M54.0144 77.5782C54.1592 77.3573 54.2838 77.1212 54.385 76.8724C54.9252 76.0957 55.2211 75.1665 55.2211 74.1949V40.2798C55.2211 39.191 54.8533 38.1789 54.2211 37.3747C54.3549 36.1117 55.1394 35.3938 56.082 35.3938C56.2955 35.3938 56.5171 35.4303 56.7408 35.506C57.1256 36.0858 57.345 36.7803 57.345 37.5205V71.271C57.345 71.2823 57.3454 71.294 57.3461 71.305C57.4983 73.6664 56.8459 75.5386 55.4594 76.7195C55.0325 77.0834 54.5471 77.3701 54.0144 77.5782Z" fill="#B24A37"/>
<path fill-rule="evenodd" clip-rule="evenodd" d="M53.6414 77.7089C53.9245 77.4579 54.1737 77.1769 54.3851 76.8728C54.2838 77.1213 54.1592 77.3574 54.0145 77.5783C53.8927 77.6261 53.7681 77.6696 53.6414 77.7089Z" fill="#C38682"/>
<path fill-rule="evenodd" clip-rule="evenodd" d="M54.0144 77.5782C54.1592 77.3573 54.2838 77.1212 54.385 76.8727V76.8723C54.2838 77.1212 54.1592 77.3573 54.0144 77.5782Z" fill="#882C32"/>
<path fill-rule="evenodd" clip-rule="evenodd" d="M3.49411 24.6666L51.595 35.7056C53.7309 36.2075 55.2212 38.0882 55.2212 40.2797V74.1948C55.2212 75.547 54.6481 76.8167 53.6414 77.7088C54.3221 77.4974 54.9348 77.1665 55.4594 76.7194C56.846 75.5385 57.4984 73.6663 57.3461 71.3049C57.3454 71.2939 57.3451 71.2822 57.3451 71.2709V37.5204C57.3451 35.8242 56.1925 34.3689 54.5419 33.9806L4.95995 23.0337C4.69517 22.9749 4.51712 22.7268 4.5465 22.4574C4.57588 22.188 4.80349 21.9842 5.07428 21.9842H57.8371C60.4283 21.9842 62.5362 24.0921 62.5362 26.6833V60.8266C62.5362 61.3495 62.4502 61.8634 62.2807 62.3541C62.1628 62.6967 62.0077 63.021 61.8194 63.3218C63.4916 62.4603 64.2863 61.0592 64.2477 58.1877V24.0372C64.2477 22.0316 62.6162 20.4001 60.6106 20.4001H4.51322C3.37375 20.4001 2.31428 20.9587 1.66897 21.8967C1.42827 22.4833 1.42154 23.0093 1.64986 23.4603C1.93729 24.028 2.5865 24.4549 3.47818 24.6631C3.48349 24.6642 3.4888 24.6652 3.49411 24.6666ZM51.7267 79.0482C51.0361 79.0482 50.3146 78.9647 49.5723 78.7955C49.2884 78.7311 49.1097 78.45 49.1713 78.1657C49.2329 77.8811 49.5122 77.6992 49.7968 77.758C50.869 77.9781 51.9713 77.7059 52.8215 77.0121C53.6718 76.3187 54.1592 75.2918 54.1592 74.1948V40.2797C54.1592 38.5834 53.006 37.1279 51.3546 36.7399L3.25659 25.7017C3.25128 25.7006 3.2449 25.6992 3.23889 25.6974V25.6978C2.03499 25.4174 1.13411 24.793 0.702249 23.9396C0.325258 23.1944 0.328444 22.3275 0.711807 21.4334C0.724904 21.4036 0.740479 21.3746 0.758178 21.3477C1.59782 20.0896 3.00172 19.3381 4.51322 19.3381H60.6106C63.2017 19.3381 65.3097 21.4461 65.3097 24.0373V58.1806C65.373 62.9098 63.2106 64.3484 59.4545 65.2319C59.1826 65.2967 58.9076 65.1385 58.8254 64.8712C58.743 64.6043 58.8817 64.3194 59.1426 64.2196C60.1486 63.8337 60.9263 63.0277 61.2764 62.0082C61.4077 61.6284 61.4743 61.2312 61.4743 60.8266V26.6833C61.4743 24.6776 59.8428 23.0461 57.8371 23.0461H9.94225L54.778 32.9452C56.9178 33.4482 58.407 35.3289 58.407 37.5204V71.2539C58.5745 73.9165 57.7727 76.1438 56.1483 77.5275C54.9699 78.5314 53.4438 79.0482 51.7267 79.0482Z" fill="#66142E"/>
<path fill-rule="evenodd" clip-rule="evenodd" d="M57.3084 27.0707C57.2012 27.0707 57.0921 27.0696 56.981 27.0675H23.2868C22.9937 27.0675 22.7559 26.83 22.7559 26.5365C22.7559 26.2431 22.9937 26.0056 23.2868 26.0056H56.9913C59.7353 26.0565 60.3944 25.4187 60.5498 25.1415C60.7438 24.7957 60.541 24.3418 60.3367 24.0226C60.1789 23.7755 60.2511 23.447 60.4982 23.2891C60.7452 23.1309 61.0737 23.2034 61.2316 23.4505C61.8847 24.4725 61.7251 25.2165 61.4762 25.6604C60.9516 26.5967 59.5502 27.0707 57.3084 27.0707Z" fill="#66142E"/>
<path fill-rule="evenodd" clip-rule="evenodd" d="M45.3558 26.5366L26.3576 26.6711L26.3275 26.664L22.0532 25.7206L19.7381 25.2091L16.8903 24.5808L13.3257 7.83386C13.2726 7.58608 13.4301 7.34183 13.6779 7.28873L27.1399 4.42321L34.8744 2.77723L37.4956 2.2197H37.4974L39.6124 1.76834C39.8602 1.71528 40.1045 1.87277 40.1576 2.12059L45.3558 26.5366Z" fill="#1EBC61"/>
<path fill-rule="evenodd" clip-rule="evenodd" d="M16.965 24.5064L26.3674 26.5825L45.2467 26.4487L40.0708 2.13903C40.0503 2.04243 39.9933 1.95963 39.9101 1.90586C39.8269 1.85213 39.7278 1.83344 39.6308 1.85489L13.6963 7.37531C13.497 7.418 13.3696 7.61538 13.412 7.81535L16.965 24.5064ZM26.3476 26.7595L26.3073 26.7499L16.8156 24.6547L13.2389 7.85237C13.1759 7.55694 13.3646 7.26536 13.6595 7.20214L37.4956 2.13106L39.594 1.68168C39.8892 1.61913 40.1809 1.80717 40.2439 2.10204L45.4648 26.6243L45.3565 26.625L26.3476 26.7595Z" fill="#66142E"/>
<path fill-rule="evenodd" clip-rule="evenodd" d="M17.9466 24.723L17.4404 24.6115L13.8599 7.79288L27.0032 4.99561L26.9048 5.40807L14.8514 7.97366C14.6036 8.02676 14.4443 8.271 14.4974 8.51879L17.6248 23.2002L17.9466 24.723Z" fill="#9AE1B8"/>
<path fill-rule="evenodd" clip-rule="evenodd" d="M17.9664 24.8179L17.4606 24.7064L17.4404 24.6116L17.9466 24.7231L17.9664 24.8179Z" fill="#BA95A1"/>
<path fill-rule="evenodd" clip-rule="evenodd" d="M42.6408 26.5363L26.3275 26.6638L19.7382 25.2089L16.8833 11.7947C18.1895 11.5169 19.0231 10.2319 18.7452 8.92395L28.5028 6.84781L35.6514 5.32568C35.9293 6.63188 37.2143 7.46551 38.5222 7.18763L42.6408 26.5363Z" fill="#4EEC91"/>
<path fill-rule="evenodd" clip-rule="evenodd" d="M19.8128 25.1349L26.337 26.5753L42.5317 26.4489L38.4538 7.291C37.16 7.52106 35.9027 6.704 35.5848 5.43037L18.8485 8.99228C19.0768 10.2864 18.2616 11.5438 16.988 11.8617L19.8128 25.1349ZM26.3183 26.7523L26.3083 26.7502L19.6634 25.2833L16.7781 11.7268L16.8648 11.708C18.1211 11.4408 18.926 10.2001 18.6584 8.94201L18.6404 8.85564L18.7267 8.83723L35.7193 5.2207L35.7381 5.30711C36.0053 6.56368 37.2467 7.36792 38.5037 7.10106L38.5905 7.08272L42.7498 26.6241L26.3183 26.7523Z" fill="#66142E"/>
<path fill-rule="evenodd" clip-rule="evenodd" d="M26.5706 6.80612L26.9047 5.40807L28.3755 5.09497L28.0417 6.49306L26.5706 6.80612Z" fill="#348952"/>
<path fill-rule="evenodd" clip-rule="evenodd" d="M26.9048 5.40814L27.0032 4.99568L28.474 4.68262L28.3756 5.09504L26.9048 5.40814Z" fill="#8AA38E"/>
<path fill-rule="evenodd" clip-rule="evenodd" d="M23.3997 25.9269L22.0737 25.6341L26.3431 7.75932L27.8139 7.44629L23.3997 25.9269Z" fill="#55AB73"/>
<path fill-rule="evenodd" clip-rule="evenodd" d="M23.379 26.0131L22.053 25.7204L22.0735 25.634L23.3995 25.9268L23.379 26.0131Z" fill="#66142E"/>
<path fill-rule="evenodd" clip-rule="evenodd" d="M45.3553 27.0678C45.11 27.0678 44.8894 26.8968 44.8363 26.6472L39.6533 2.30249L37.608 2.73877C37.6013 2.74033 37.5949 2.74153 37.5882 2.74274L13.8597 7.79282L17.5316 25.0402C17.5928 25.3269 17.4098 25.6086 17.1227 25.6699C16.8356 25.7308 16.5539 25.5481 16.493 25.2614L12.8063 7.94458C12.6919 7.41105 13.0332 6.88369 13.5666 6.76943L37.385 1.70015C37.3914 1.69877 37.3978 1.69757 37.4041 1.69651L39.5015 1.249C39.7595 1.19385 40.024 1.24228 40.2459 1.38539C40.4682 1.529 40.6211 1.75063 40.6767 2.00936L45.8749 26.426C45.9362 26.7127 45.7532 26.9945 45.4664 27.0557C45.4289 27.0639 45.3917 27.0678 45.3553 27.0678Z" fill="#66142E"/>
<path fill-rule="evenodd" clip-rule="evenodd" d="M42.6404 26.9792C42.4362 26.9792 42.2525 26.8366 42.2079 26.6284L38.1746 7.67908C36.9374 7.74821 35.7856 7.00085 35.3442 5.84368L19.2365 9.27161C19.3049 10.5095 18.5583 11.6606 17.4011 12.102L20.2932 25.6865C20.3442 25.9254 20.1916 26.1605 19.9526 26.2118C19.7137 26.262 19.4783 26.1102 19.4277 25.8713L16.4503 11.8868C16.4259 11.7721 16.4482 11.6525 16.5119 11.5537C16.576 11.4557 16.6765 11.3863 16.7912 11.3619C17.8567 11.1353 18.5392 10.0829 18.3123 9.01568C18.2617 8.77674 18.4142 8.54205 18.6532 8.49108L35.5594 4.89302C35.6737 4.86916 35.7937 4.89058 35.8921 4.95469C35.9909 5.01851 36.0599 5.11893 36.0843 5.23369C36.3109 6.29908 37.3629 6.9818 38.4302 6.75486C38.6695 6.70403 38.9042 6.85685 38.9551 7.09554L43.0737 26.4443C43.1247 26.6833 42.9721 26.9183 42.7332 26.9693C42.702 26.9757 42.6709 26.9792 42.6404 26.9792Z" fill="#66142E"/>
<path fill-rule="evenodd" clip-rule="evenodd" d="M56.6107 7.25856L52.0054 26.5365H23.8L29.9275 0.883306C29.9859 0.637323 30.2337 0.485075 30.4815 0.543483L56.2708 6.70458C56.5169 6.76299 56.6691 7.01077 56.6107 7.25856Z" fill="#1EBC61"/>
<path fill-rule="evenodd" clip-rule="evenodd" d="M24.987 26.0054H24.4727L30.4273 1.07642L56.0776 7.20424L55.9654 7.67489L31.2479 1.76994C31.2121 1.76151 31.1764 1.75744 31.141 1.75744C30.9325 1.75744 30.7438 1.89925 30.6939 2.10973L24.987 26.0054Z" fill="#9AE1B8"/>
<path fill-rule="evenodd" clip-rule="evenodd" d="M24.4727 26.0055H51.5863L56.0776 7.20434L30.4273 1.07651L24.4727 26.0055ZM52.0054 27.0674H23.8001C23.6376 27.0674 23.484 26.9931 23.3834 26.8653C23.2826 26.7379 23.2458 26.5711 23.2836 26.4129L29.4111 0.759877C29.5367 0.230603 30.0712 -0.0988134 30.6033 0.0266733L56.3944 6.18802C56.9236 6.31368 57.2528 6.84862 57.1275 7.38044L57.1272 7.382L52.5219 26.66C52.4649 26.8989 52.2511 27.0674 52.0054 27.0674Z" fill="#66142E"/>
<path fill-rule="evenodd" clip-rule="evenodd" d="M61.8196 63.3219C62.0079 63.021 62.1629 62.6967 62.2808 62.3541C62.4504 61.8635 62.5364 61.3495 62.5364 60.8266V26.6833C62.5364 25.8957 62.3417 25.153 61.998 24.5003C62.2667 23.2773 62.8539 22.4058 63.4511 22.4058C63.5998 22.4058 63.7491 22.4596 63.8939 22.5757C63.9304 22.622 63.9654 22.6688 63.9998 22.7169C64.1601 23.1261 64.2479 23.5718 64.2479 24.0373V58.1877C64.2865 61.0592 63.4918 62.4603 61.8196 63.3219Z" fill="#B24A37"/>
<path fill-rule="evenodd" clip-rule="evenodd" d="M63.9996 22.7169C63.9653 22.6688 63.9303 22.6221 63.8938 22.5757C63.9193 22.5959 63.9444 22.6182 63.9696 22.6422C63.9798 22.667 63.9901 22.6918 63.9996 22.7169Z" fill="#C38682"/>
<path fill-rule="evenodd" clip-rule="evenodd" d="M59.3328 64.7153C60.4779 64.2763 61.3788 63.3453 61.7788 62.1807C61.9257 61.756 62.0053 61.3011 62.0053 60.8268V26.6834C62.0053 26.2993 61.954 25.9276 61.8549 25.5754V25.5719C61.8744 25.1956 61.9243 24.8345 61.9979 24.5004C62.3416 25.1531 62.5363 25.8958 62.5363 26.6834V60.8268C62.5363 61.3496 62.4503 61.8636 62.2807 62.3542C62.1629 62.6968 62.0078 63.0211 61.8195 63.322C63.4917 62.4604 64.2864 61.0593 64.2478 58.1878V24.0374C64.2478 23.5719 64.16 23.1262 63.9997 22.717C63.9901 22.6919 63.9798 22.6671 63.9696 22.6423C64.2783 22.939 64.5636 23.5291 64.7788 24.4922V58.1807C64.839 62.6869 62.8761 63.8816 59.3328 64.7153Z" fill="#66142E"/>
<path fill-rule="evenodd" clip-rule="evenodd" d="M52.9558 11.1293L49.2744 26.5364H26.5293L31.4373 5.98939C32.7381 6.29913 34.0426 5.49739 34.3523 4.19824L51.1647 8.21424C50.855 9.51336 51.6567 10.8196 52.9558 11.1293Z" fill="#4EEC91"/>
<path fill-rule="evenodd" clip-rule="evenodd" d="M40.0355 18.361C36.645 17.7132 33.3717 19.9369 32.7239 23.3273C32.5116 24.4392 32.6096 25.538 32.9551 26.5365H44.7714C44.867 26.2579 44.9452 25.9702 45.0018 25.6725C45.6496 22.282 43.4259 19.0084 40.0355 18.361Z" fill="#1EBC61"/>
<path fill-rule="evenodd" clip-rule="evenodd" d="M37.1776 26.4734C36.3645 26.318 35.7334 25.7084 35.6145 24.6624L34.6272 24.4737L34.8676 23.2157L35.7005 23.375C35.8506 22.6812 36.1599 22.0458 36.4169 21.7378L37.5645 22.2638C37.2899 22.6181 36.9737 23.182 36.8548 23.8036C36.727 24.4741 36.9373 24.8797 37.3578 24.9601C37.7589 25.0366 38.0467 24.7746 38.4725 24.0525C39.0499 23.0528 39.7766 22.4677 40.7146 22.6468C41.6014 22.8164 42.2053 23.5512 42.2541 24.6266L43.2442 24.8157L43.0038 26.0737L42.0831 25.8978C41.9408 26.3966 41.7426 26.7654 41.5507 27.0397L40.4353 26.4907C40.6095 26.2567 40.8785 25.8309 40.9992 25.2004C41.1199 24.5686 40.892 24.2079 40.5564 24.1438C40.1454 24.0652 39.8945 24.3948 39.4198 25.1661C38.7815 26.2245 38.0856 26.6468 37.1776 26.4734Z" fill="#4EEC91"/>
<path fill-rule="evenodd" clip-rule="evenodd" d="M40.9642 13.4987C39.9988 13.3142 39.3656 12.3822 39.55 11.4165C39.7344 10.4512 40.6668 9.81796 41.6321 10.0024C42.5974 10.1868 43.2307 11.1192 43.0463 12.0845C42.8619 13.0498 41.9298 13.6831 40.9642 13.4987Z" fill="#1EBC61"/>
<path fill-rule="evenodd" clip-rule="evenodd" d="M43.949 20.8679C43.4913 20.2268 42.9132 19.6714 42.2393 19.2385C43.3359 17.2969 45.2446 15.8743 47.5037 15.4321C45.8955 16.5118 44.6594 18.15 44.1136 20.1433C44.1136 20.1443 44.1132 20.145 44.1129 20.1461C44.1125 20.1479 44.1118 20.1504 44.1111 20.1521C44.08 20.2668 44.0509 20.3826 44.0244 20.4994V20.4997C44.0237 20.5033 44.0226 20.5068 44.0219 20.5107C44.0219 20.5107 44.0219 20.5107 44.0219 20.5111C44.0201 20.5185 44.0184 20.5259 44.017 20.533C44.0166 20.5337 44.0166 20.5348 44.0162 20.5351C44.0159 20.538 44.0152 20.5408 44.0145 20.5436C44.0141 20.5447 44.0141 20.5458 44.0138 20.5468C44.0131 20.5493 44.0127 20.5518 44.012 20.5543C44.012 20.5553 44.0116 20.5564 44.0113 20.5574C44.0106 20.561 44.0099 20.5645 44.0092 20.5681C44.0088 20.5698 44.0085 20.572 44.0078 20.5737C44.0078 20.5741 44.0078 20.5741 44.0078 20.5744C44.0074 20.5755 44.007 20.5769 44.007 20.578C43.9858 20.6746 43.9667 20.7712 43.949 20.8679Z" fill="#55AB73"/>
<path fill-rule="evenodd" clip-rule="evenodd" d="M44.7034 26.0939H42.0223C42.0435 26.0308 42.0637 25.9657 42.0832 25.8978L43.0039 26.0737L43.2443 24.8156L42.2542 24.6266C42.2159 23.782 41.835 23.1473 41.2439 22.8319C41.2796 21.5282 41.6372 20.3052 42.2393 19.2383C42.9133 19.6712 43.4913 20.2266 43.949 20.8677C43.9359 20.9409 43.9235 21.0139 43.9122 21.0871C43.9076 21.1176 43.903 21.148 43.8984 21.1781C43.8984 21.1781 43.8988 21.1774 43.8988 21.177C43.8372 21.6075 43.8099 22.0351 43.8149 22.4588C43.8209 22.9424 43.869 23.4199 43.9565 23.8861C43.9568 23.8871 43.9572 23.8889 43.9572 23.89C43.9575 23.8907 43.9575 23.8914 43.9575 23.8921C44.0938 24.6142 44.325 25.3108 44.6396 25.9643C44.6605 26.0075 44.6818 26.0507 44.7034 26.0939Z" fill="#348952"/>
<path fill-rule="evenodd" clip-rule="evenodd" d="M42.0223 26.094H41.8602C41.462 25.1598 41.2407 24.1311 41.2407 23.0504C41.2407 22.9775 41.2418 22.9046 41.2439 22.832C41.8351 23.1474 42.2159 23.7821 42.2542 24.6267L43.2443 24.8157L43.0039 26.0738L42.0832 25.8979C42.0637 25.9658 42.0436 26.031 42.0223 26.094Z" fill="#55AB73"/>
<path fill-rule="evenodd" clip-rule="evenodd" d="M44.8075 23.8862C44.1946 23.42 43.8571 22.9425 43.8149 22.459C43.8174 22.4668 43.8174 22.4753 43.8174 22.4834C43.8174 22.4852 43.8174 22.4869 43.8174 22.4891C43.8199 22.4901 43.8199 22.4908 43.8199 22.4919C43.872 22.9602 44.202 23.4222 44.7926 23.8742C44.7976 23.8781 44.8025 23.882 44.8075 23.8862Z" fill="#348952"/>
<path fill-rule="evenodd" clip-rule="evenodd" d="M44.1417 20.1896C44.1437 20.1846 44.1447 20.1786 44.1467 20.1736C44.1447 20.1786 44.1437 20.1846 44.1417 20.1896ZM44.1135 20.1433C44.6594 18.1504 45.8958 16.5118 47.5036 15.4321C47.504 15.4321 47.5036 15.4321 47.504 15.4321C45.905 16.5058 44.6739 18.1309 44.1234 20.1082C44.1227 20.11 44.1224 20.1118 44.1217 20.1135C44.1213 20.115 44.121 20.116 44.1206 20.1174C44.1199 20.121 44.1188 20.1245 44.1178 20.1281C44.1178 20.1284 44.1178 20.1288 44.1174 20.1288C44.1164 20.1337 44.1149 20.1383 44.1135 20.1433Z" fill="#55AB73"/>
<path fill-rule="evenodd" clip-rule="evenodd" d="M27.0899 26.0939H48.9253L52.4305 11.4238C51.2843 10.9541 50.566 9.78526 50.6648 8.54986L34.6467 4.72367C34.177 5.86961 33.0078 6.58827 31.7728 6.48905L27.0899 26.0939ZM49.2743 26.9789H26.5292C26.3936 26.9789 26.2659 26.9169 26.182 26.8104C26.0981 26.7042 26.0673 26.5654 26.0988 26.4338L31.0067 5.88653C31.0634 5.64922 31.302 5.50179 31.5398 5.55903C32.6 5.81082 33.6694 5.15507 33.9218 4.09574C33.949 3.98161 34.0205 3.88292 34.1207 3.8214C34.2205 3.75988 34.3409 3.74069 34.4552 3.76799L51.2673 7.78384C51.5051 7.84052 51.6517 8.07907 51.5951 8.31694C51.342 9.37747 51.9986 10.4461 53.0584 10.6989C53.1728 10.7258 53.2712 10.7976 53.3328 10.8975C53.3943 10.9976 53.4135 11.1176 53.3862 11.232L49.7048 26.6394C49.657 26.8384 49.4789 26.9789 49.2743 26.9789Z" fill="#66142E"/>
<path fill-rule="evenodd" clip-rule="evenodd" d="M50.5327 76.9489C50.3468 76.9489 50.1592 76.9294 49.9751 76.8904L49.9327 76.8834L4.26187 66.1365C4.06364 66.0904 3.87249 66.0232 3.69019 65.9382C4.44381 65.9637 5.19921 65.9765 5.95249 65.9765C6.6601 65.9765 7.36665 65.9651 8.07319 65.9428L9.54611 66.2894C9.57337 66.2958 9.60063 66.2989 9.62753 66.2989C9.78788 66.2989 9.93337 66.1889 9.9716 66.026C9.98541 65.9676 9.98364 65.9096 9.96948 65.8554C26.2962 64.8703 41.9086 57.8816 51.5043 45.4402V47.2894C51.5043 47.4848 51.6629 47.6434 51.8583 47.6434C52.0537 47.6434 52.2123 47.4848 52.2123 47.2894V44.9984C52.2123 44.8773 52.1514 44.7704 52.0587 44.7067C52.476 44.1425 52.8817 43.5666 53.2743 42.9807V74.1949C53.2743 75.7135 52.0442 76.9489 50.5327 76.9489ZM47.5351 74.5099C47.3744 74.5099 47.2289 74.62 47.1904 74.7828C47.1454 74.9733 47.2636 75.1637 47.4537 75.2087L49.6838 75.7333C49.7111 75.74 49.7383 75.7428 49.7652 75.7428C49.9256 75.7428 50.0711 75.6327 50.1093 75.4699C50.1543 75.2795 50.036 75.089 49.8459 75.0441L47.6158 74.5195C47.5889 74.5131 47.5617 74.5099 47.5351 74.5099ZM51.8583 72.134C51.6629 72.134 51.5043 72.2922 51.5043 72.4876V74.1949C51.5043 74.3446 51.4746 74.4848 51.4158 74.6122C51.3337 74.7896 51.4109 75.0002 51.5886 75.082C51.6367 75.1043 51.687 75.1145 51.7369 75.1145C51.8707 75.1145 51.9985 75.0388 52.0583 74.9092C52.1606 74.688 52.2123 74.4476 52.2123 74.1949V72.4876C52.2123 72.2922 52.0537 72.134 51.8583 72.134ZM43.075 73.4607C42.9146 73.4607 42.7691 73.5704 42.7305 73.7336C42.6859 73.9241 42.8038 74.1145 42.9943 74.1595L45.224 74.6841C45.2512 74.6904 45.2785 74.6933 45.3054 74.6933C45.4658 74.6933 45.6112 74.5835 45.6495 74.4207C45.6944 74.2303 45.5766 74.0398 45.3861 73.9949L43.1564 73.4699C43.1291 73.4635 43.1019 73.4607 43.075 73.4607ZM38.6151 72.4112C38.4551 72.4112 38.3093 72.5212 38.2707 72.6844C38.2261 72.8745 38.344 73.065 38.5344 73.1099L40.7642 73.6349C40.7914 73.6412 40.8187 73.6441 40.8456 73.6441C41.0063 73.6441 41.1514 73.5343 41.1897 73.3712C41.2346 73.1811 41.1167 72.9903 40.9263 72.9457L38.6966 72.4207C38.6693 72.4143 38.642 72.4112 38.6151 72.4112ZM34.1557 71.362C33.995 71.362 33.8495 71.472 33.8112 71.6349C33.7663 71.8253 33.8842 72.0158 34.0746 72.0607L36.3043 72.5853C36.3316 72.5917 36.3592 72.5949 36.3858 72.5949C36.5465 72.5949 36.6916 72.4848 36.7302 72.322C36.7748 72.1315 36.6569 71.9411 36.4668 71.8961L34.2367 71.3715C34.2095 71.3651 34.1822 71.362 34.1557 71.362ZM29.6962 70.3127C29.5351 70.3127 29.3897 70.4225 29.3514 70.5857C29.3065 70.7761 29.4247 70.9666 29.6148 71.0115L31.8449 71.5361C31.8718 71.5425 31.8994 71.5453 31.9259 71.5453C32.0866 71.5453 32.2321 71.4356 32.2704 71.2724C32.3153 71.0823 32.1971 70.8919 32.007 70.8469L29.7769 70.322C29.75 70.3159 29.7228 70.3127 29.6962 70.3127ZM51.8583 67.5524C51.6629 67.5524 51.5043 67.7106 51.5043 67.9064V70.197C51.5043 70.3924 51.6629 70.551 51.8583 70.551C52.0537 70.551 52.2123 70.3924 52.2123 70.197V67.9064C52.2123 67.7106 52.0537 67.5524 51.8583 67.5524ZM25.2357 69.2632C25.0753 69.2632 24.9298 69.3736 24.8916 69.5365C24.847 69.7266 24.9649 69.917 25.155 69.962L27.3851 70.4869C27.4123 70.4933 27.4396 70.4961 27.4665 70.4961C27.6268 70.4961 27.7723 70.3864 27.8105 70.2232C27.8555 70.0327 27.7373 69.8423 27.5472 69.7973L25.3171 69.2727C25.2898 69.2664 25.2626 69.2632 25.2357 69.2632ZM20.7758 68.214C20.6155 68.214 20.4704 68.3241 20.4318 68.4869C20.3872 68.6774 20.5051 68.8678 20.6955 68.9127L22.9252 69.4373C22.9525 69.4437 22.9797 69.4469 23.0066 69.4469C23.167 69.4469 23.3125 69.3368 23.3507 69.174C23.3957 68.9835 23.2778 68.7931 23.0874 68.7481L20.8576 68.2235C20.8304 68.2168 20.8028 68.214 20.7758 68.214ZM16.3167 67.1648C16.1564 67.1648 16.0105 67.2745 15.972 67.4377C15.9274 67.6281 16.0452 67.8186 16.2357 67.8635L18.4654 68.3881C18.4927 68.3945 18.5199 68.3974 18.5468 68.3974C18.7075 68.3974 18.8527 68.2876 18.8912 68.1244C18.9359 67.9343 18.818 67.7439 18.6275 67.6989L16.3978 67.174C16.3705 67.1676 16.3436 67.1648 16.3167 67.1648ZM11.8569 66.1152C11.6966 66.1152 11.5507 66.2253 11.5125 66.3885C11.4675 66.5786 11.5854 66.769 11.7758 66.814L14.0059 67.3389C14.0328 67.3453 14.0605 67.3481 14.0874 67.3481C14.2477 67.3481 14.3932 67.2381 14.4314 67.0752C14.476 66.8848 14.3581 66.6943 14.1681 66.6494L11.938 66.1248C11.9107 66.1184 11.8838 66.1152 11.8569 66.1152ZM51.8583 62.9708C51.6629 62.9708 51.5043 63.1294 51.5043 63.3248V65.6154C51.5043 65.8108 51.6629 65.9694 51.8583 65.9694C52.0537 65.9694 52.2123 65.8108 52.2123 65.6154V63.3248C52.2123 63.1294 52.0537 62.9708 51.8583 62.9708ZM51.8583 58.3892C51.6629 58.3892 51.5043 58.5478 51.5043 58.7432V61.0338C51.5043 61.2292 51.6629 61.3878 51.8583 61.3878C52.0537 61.3878 52.2123 61.2292 52.2123 61.0338V58.7432C52.2123 58.5478 52.0537 58.3892 51.8583 58.3892ZM51.8583 53.8076C51.6629 53.8076 51.5043 53.9662 51.5043 54.1616V56.4522C51.5043 56.648 51.6629 56.8062 51.8583 56.8062C52.0537 56.8062 52.2123 56.648 52.2123 56.4522V54.1616C52.2123 53.9662 52.0537 53.8076 51.8583 53.8076ZM51.8583 49.226C51.6629 49.226 51.5043 49.3846 51.5043 49.58V51.8706C51.5043 52.0664 51.6629 52.2246 51.8583 52.2246C52.0537 52.2246 52.2123 52.0664 52.2123 51.8706V49.58C52.2123 49.3846 52.0537 49.226 51.8583 49.226Z" fill="#BF5E26"/>
<path fill-rule="evenodd" clip-rule="evenodd" d="M49.7653 75.7429C49.7384 75.7429 49.7111 75.7401 49.6839 75.7333L47.4538 75.2087C47.2637 75.1638 47.1455 74.9733 47.1904 74.7829C47.229 74.6201 47.3745 74.51 47.5352 74.51C47.5617 74.51 47.589 74.5132 47.6159 74.5195L49.846 75.0441C50.0361 75.0891 50.1543 75.2795 50.1093 75.47C50.0711 75.6328 49.9256 75.7429 49.7653 75.7429ZM51.737 75.1146C51.687 75.1146 51.6368 75.1043 51.5886 75.082C51.4109 75.0002 51.3338 74.7896 51.4159 74.6123C51.4747 74.4848 51.5044 74.3447 51.5044 74.1949V72.4877C51.5044 72.2923 51.663 72.134 51.8584 72.134C52.0538 72.134 52.2124 72.2923 52.2124 72.4877V74.1949C52.2124 74.4477 52.1607 74.688 52.0584 74.9093C51.9986 75.0388 51.8708 75.1146 51.737 75.1146ZM45.3055 74.6933C45.2786 74.6933 45.2513 74.6905 45.224 74.6841L42.9943 74.1595C42.8039 74.1146 42.686 73.9241 42.7306 73.7337C42.7692 73.5705 42.9147 73.4608 43.075 73.4608C43.1019 73.4608 43.1292 73.4636 43.1564 73.47L45.3862 73.9949C45.5766 74.0399 45.6945 74.2303 45.6495 74.4208C45.6113 74.5836 45.4658 74.6933 45.3055 74.6933ZM40.8456 73.6441C40.8187 73.6441 40.7915 73.6413 40.7642 73.6349L38.5345 73.11C38.344 73.065 38.2262 72.8746 38.2708 72.6845C38.3093 72.5213 38.4552 72.4112 38.6152 72.4112C38.6421 72.4112 38.6693 72.4144 38.6966 72.4208L40.9263 72.9457C41.1168 72.9903 41.2347 73.1811 41.1897 73.3712C41.1515 73.5344 41.0063 73.6441 40.8456 73.6441ZM36.3858 72.5949C36.3593 72.5949 36.3316 72.5917 36.3044 72.5854L34.0747 72.0608C33.8842 72.0158 33.7663 71.8254 33.8113 71.6349C33.8495 71.4721 33.995 71.362 34.1557 71.362C34.1823 71.362 34.2095 71.3652 34.2368 71.3716L36.4669 71.8962C36.657 71.9411 36.7748 72.1316 36.7302 72.322C36.6917 72.4848 36.5465 72.5949 36.3858 72.5949ZM31.926 71.5454C31.8994 71.5454 31.8718 71.5425 31.8449 71.5362L29.6148 71.0116C29.4247 70.9666 29.3065 70.7762 29.3515 70.5857C29.3897 70.4225 29.5352 70.3128 29.6963 70.3128C29.7228 70.3128 29.7501 70.316 29.777 70.322L32.007 70.847C32.1971 70.8919 32.3154 71.0824 32.2704 71.2725C32.2322 71.4356 32.0867 71.5454 31.926 71.5454ZM51.8584 70.551C51.663 70.551 51.5044 70.3925 51.5044 70.1971V67.9064C51.5044 67.7107 51.663 67.5525 51.8584 67.5525C52.0538 67.5525 52.2124 67.7107 52.2124 67.9064V70.1971C52.2124 70.3925 52.0538 70.551 51.8584 70.551ZM27.4665 70.4962C27.4396 70.4962 27.4124 70.4933 27.3851 70.487L25.155 69.962C24.9649 69.9171 24.847 69.7266 24.8916 69.5365C24.9299 69.3737 25.0754 69.2632 25.2357 69.2632C25.2626 69.2632 25.2899 69.2664 25.3171 69.2728L27.5472 69.7974C27.7373 69.8424 27.8555 70.0328 27.8106 70.2232C27.7724 70.3864 27.6269 70.4962 27.4665 70.4962ZM23.0067 69.447C22.9798 69.447 22.9525 69.4438 22.9253 69.4374L20.6955 68.9128C20.5051 68.8678 20.3872 68.6774 20.4318 68.487C20.4704 68.3241 20.6155 68.214 20.7759 68.214C20.8028 68.214 20.8304 68.2169 20.8577 68.2236L23.0874 68.7482C23.2778 68.7932 23.3957 68.9836 23.3508 69.174C23.3125 69.3369 23.167 69.447 23.0067 69.447ZM18.5469 68.3974C18.52 68.3974 18.4927 68.3946 18.4655 68.3882L16.2357 67.8636C16.0453 67.8186 15.9274 67.6282 15.972 67.4378C16.0106 67.2746 16.1564 67.1648 16.3168 67.1648C16.3437 67.1648 16.3706 67.1677 16.3978 67.174L18.6276 67.699C18.818 67.744 18.9359 67.9344 18.8913 68.1245C18.8527 68.2877 18.7076 68.3974 18.5469 68.3974ZM14.0874 67.3482C14.0605 67.3482 14.0329 67.3454 14.006 67.339L11.7759 66.814C11.5855 66.7691 11.4676 66.5786 11.5125 66.3886C11.5508 66.2254 11.6966 66.1153 11.857 66.1153C11.8839 66.1153 11.9108 66.1185 11.938 66.1248L14.1681 66.6494C14.3582 66.6944 14.4761 66.8848 14.4315 67.0753C14.3932 67.2381 14.2478 67.3482 14.0874 67.3482ZM9.62758 66.299C9.60068 66.299 9.57342 66.2958 9.54616 66.2894L8.07324 65.9429C8.70545 65.9227 9.33908 65.8937 9.96953 65.8555C9.98368 65.9096 9.98545 65.9677 9.97165 66.0261C9.93342 66.1889 9.78793 66.299 9.62758 66.299ZM51.8584 65.9694C51.663 65.9694 51.5044 65.8109 51.5044 65.6155V63.3248C51.5044 63.1294 51.663 62.9709 51.8584 62.9709C52.0538 62.9709 52.2124 63.1294 52.2124 63.3248V65.6155C52.2124 65.8109 52.0538 65.9694 51.8584 65.9694ZM51.8584 61.3878C51.663 61.3878 51.5044 61.2293 51.5044 61.0339V58.7432C51.5044 58.5478 51.663 58.3893 51.8584 58.3893C52.0538 58.3893 52.2124 58.5478 52.2124 58.7432V61.0339C52.2124 61.2293 52.0538 61.3878 51.8584 61.3878ZM51.8584 56.8063C51.663 56.8063 51.5044 56.648 51.5044 56.4523V54.1617C51.5044 53.9663 51.663 53.8077 51.8584 53.8077C52.0538 53.8077 52.2124 53.9663 52.2124 54.1617V56.4523C52.2124 56.648 52.0538 56.8063 51.8584 56.8063ZM51.8584 52.2247C51.663 52.2247 51.5044 52.0664 51.5044 51.8707V49.5801C51.5044 49.3847 51.663 49.2261 51.8584 49.2261C52.0538 49.2261 52.2124 49.3847 52.2124 49.5801V51.8707C52.2124 52.0664 52.0538 52.2247 51.8584 52.2247ZM51.8584 47.6434C51.663 47.6434 51.5044 47.4848 51.5044 47.2894V45.4402C51.6917 45.1978 51.8764 44.9535 52.0587 44.7068C52.1515 44.7705 52.2124 44.8774 52.2124 44.9985V47.2894C52.2124 47.4848 52.0538 47.6434 51.8584 47.6434Z" fill="#D1B8C0"/>
<path fill-rule="evenodd" clip-rule="evenodd" d="M60.2896 24.1347C59.3048 28.6303 54.8617 31.4763 50.3661 30.4915C49.0443 30.202 47.8655 29.6133 46.8843 28.8126C46.1555 28.2179 45.5367 27.5061 45.0486 26.7128C44.8117 26.3291 44.6079 25.9255 44.4372 25.5075C43.8376 24.0494 43.6468 22.4091 43.971 20.7538C43.9834 20.6915 43.9955 20.6303 44.0093 20.568C44.9944 16.071 49.4376 13.2246 53.9332 14.2098C54.4054 14.3131 54.8581 14.4544 55.2914 14.631C56.8319 15.2554 58.1105 16.3117 59.0128 17.6225C59.2684 17.9953 59.4939 18.3871 59.6871 18.7953C60.0836 19.6338 60.342 20.54 60.4386 21.4813C60.5307 22.3457 60.4857 23.2399 60.2896 24.1347Z" fill="#F7C714"/>
<path fill-rule="evenodd" clip-rule="evenodd" d="M60.2895 24.1346C59.4364 28.0295 55.9872 30.6862 52.1571 30.6862C51.5663 30.6862 50.9667 30.6231 50.366 30.4915C49.0442 30.2019 47.8654 29.6132 46.8842 28.8125C46.1553 28.2178 45.5366 27.506 45.0484 26.7127C44.8116 26.329 44.6077 25.9254 44.4371 25.5074C44.0329 24.5244 43.8145 23.4585 43.8145 22.3608C43.8145 21.8306 43.8654 21.2929 43.9709 20.7538C43.9833 20.6915 43.9953 20.6302 44.0091 20.5679C44.8626 16.6716 48.3118 14.0146 52.1419 14.0146C52.7327 14.0146 53.3323 14.078 53.933 14.2097C54.4052 14.3131 54.858 14.4543 55.2913 14.6309C56.8318 15.2554 58.1104 16.3116 59.0127 17.6224C59.2683 17.9952 59.4937 18.387 59.687 18.7952C60.0835 19.6338 60.3419 20.54 60.4385 21.4812C60.469 21.7665 60.4845 22.0554 60.4845 22.346C60.4845 22.9361 60.4208 23.535 60.2895 24.1346C60.4208 23.535 60.4845 22.9361 60.4845 22.346C60.4845 22.0554 60.469 21.7665 60.4385 21.4812C60.3419 20.5396 60.0835 19.6338 59.687 18.7952C59.4937 18.387 59.2683 17.9952 59.0127 17.6224C58.1104 16.3116 56.8318 15.2554 55.2913 14.6309C54.858 14.4543 54.4052 14.3131 53.933 14.2097C53.3323 14.078 52.7327 14.0146 52.1419 14.0146C48.3118 14.0146 44.8626 16.6716 44.0091 20.5679C43.9953 20.6302 43.9833 20.6915 43.9709 20.7538C43.8654 21.2929 43.8145 21.8306 43.8145 22.3608C43.8145 23.4585 44.0329 24.5244 44.4371 25.5074C44.6077 25.9254 44.8116 26.329 45.0484 26.7127C45.5366 27.506 46.1553 28.2178 46.8842 28.8125C47.8654 29.6132 49.0442 30.2019 50.366 30.4915C50.9667 30.6231 51.5663 30.6862 52.1571 30.6862C55.9872 30.6862 59.4364 28.0295 60.2895 24.1346Z" fill="#66142E"/>
<path fill-rule="evenodd" clip-rule="evenodd" d="M60.1348 25.1198C60.1348 25.1198 60.137 25.1186 60.137 25.118C60.1885 25.0726 60.2421 25.0266 60.2914 24.9806C60.2399 25.0272 60.1885 25.0738 60.1348 25.1198ZM61.099 24.1864C61.1057 24.1774 61.1079 24.1684 61.1124 24.1594C61.1079 24.1684 61.1034 24.1774 61.099 24.1864Z" fill="#E2B69D"/>
</svg>
